<svg width="15" height="15" viewBox="0 0 15 15" fill="none" xmlns="http://www.w3.org/2000/svg">
<path fill-rule="evenodd" clip-rule="evenodd" d="M12.75 0C13.9462 0 14.9276 0.938681 14.9962 2.11801L15 2.25V9.75C15 10.9462 14.0613 11.9276 12.882 11.9962L12.75 12H10.125L8.1 14.7C7.95825 14.889 7.73625 15 7.5 15C7.29328 15 7.09747 14.915 6.95679 14.7672L6.9 14.7L4.875 12H2.25C1.0538 12 0.0724017 11.0613 0.00382733 9.88199L0 9.75V2.25C0 1.0538 0.938681 0.0724017 2.11801 0.00382733L2.25 0H12.75ZM12.75 1.5H2.25C1.86627 1.5 1.5485 1.79036 1.50506 2.16271L1.5 2.25V9.75C1.5 10.1337 1.79036 10.4515 2.16271 10.4949L2.25 10.5H5.25C5.45672 10.5 5.65253 10.585 5.79321 10.7328L5.85 10.8L7.5 12.9998L9.15 10.8C9.27403 10.6346 9.4595 10.529 9.6622 10.5051L9.75 10.5H12.75C13.1337 10.5 13.4515 10.2096 13.4949 9.83729L13.5 9.75V2.25C13.5 1.86627 13.2096 1.5485 12.8373 1.50506L12.75 1.5ZM7.5 3C7.88443 3 8.2016 3.28971 8.24495 3.66257L8.25 3.75V5.25H9.75C10.1344 5.25 10.4516 5.53971 10.495 5.91257L10.5 6C10.5 6.38443 10.2103 6.7016 9.83743 6.74495L9.75 6.75H8.25V8.25C8.25 8.63443 7.96029 8.9516 7.58743 8.99495L7.5 9C7.11557 9 6.7984 8.71029 6.75505 8.33743L6.75 8.25V6.75H5.25C4.86557 6.75 4.5484 6.46029 4.50505 6.08743L4.5 6C4.5 5.61557 4.78971 5.2984 5.16257 5.25505L5.25 5.25H6.75V3.75C6.75 3.36557 7.03971 3.0484 7.41257 3.00505L7.5 3Z" fill="#C0C0C0"/>
</svg>
