<svg width="15" height="15" viewBox="0 0 15 15" fill="none" xmlns="http://www.w3.org/2000/svg">
<path fill-rule="evenodd" clip-rule="evenodd" d="M7.5 0C7.91421 0 8.25 0.335786 8.25 0.75L8.25072 1.54651C10.9645 1.88524 13.1152 4.03627 13.4536 6.75014L14.25 6.75C14.6642 6.75 15 7.08579 15 7.5C15 7.91421 14.6642 8.25 14.25 8.25L13.4535 8.25061C13.1149 10.9641 10.9642 13.1148 8.25072 13.4535L8.25 14.25C8.25 14.6642 7.91421 15 7.5 15C7.08579 15 6.75 14.6642 6.75 14.25L6.75004 13.4536C4.03621 13.1152 1.88521 10.9644 1.5465 8.25067L0.75 8.25C0.335786 8.25 0 7.91421 0 7.5C0 7.08579 0.335786 6.75 0.75 6.75L1.54641 6.75008C1.88482 4.03599 4.03596 1.88484 6.75004 1.54642L6.75 0.75C6.75 0.335786 7.08579 0 7.5 0ZM7.5 3C5.01472 3 3 5.01472 3 7.5C3 9.98528 5.01472 12 7.5 12C9.98528 12 12 9.98528 12 7.5C12 5.01472 9.98528 3 7.5 3ZM7.5 4.5C9.15685 4.5 10.5 5.84315 10.5 7.5C10.5 9.15685 9.15685 10.5 7.5 10.5C5.84315 10.5 4.5 9.15685 4.5 7.5C4.5 5.84315 5.84315 4.5 7.5 4.5Z" fill="#A14BF7"/>
</svg>
