<svg width="68" height="68" viewBox="0 0 68 68" fill="none" xmlns="http://www.w3.org/2000/svg">
<path d="M34 0C52.7777 0 68 15.2223 68 34C68 52.7777 52.7777 68 34 68C15.2223 68 0 52.7777 0 34C0 15.2223 15.2223 0 34 0ZM34 6.8C18.9779 6.8 6.8 18.9779 6.8 34C6.8 49.0221 18.9779 61.2 34 61.2C49.0221 61.2 61.2 49.0221 61.2 34C61.2 18.9779 49.0221 6.8 34 6.8ZM47.6 40.8C47.6 48.3111 41.5111 54.4 34 54.4C26.7165 54.4 20.7703 48.6745 20.4166 41.4788L20.4 40.8H47.6ZM22.1 20.4C24.9167 20.4 27.2 22.6833 27.2 25.5C27.2 28.3167 24.9167 30.6 22.1 30.6C19.2833 30.6 17 28.3167 17 25.5C17 22.6833 19.2833 20.4 22.1 20.4ZM45.9 20.4C48.7167 20.4 51 22.6833 51 25.5C51 28.3167 48.7167 30.6 45.9 30.6C43.0833 30.6 40.8 28.3167 40.8 25.5C40.8 22.6833 43.0833 20.4 45.9 20.4Z" fill="#C1C1C1"/>
</svg>
