<svg width="20" height="20" viewBox="0 0 20 20" fill="none" xmlns="http://www.w3.org/2000/svg">
<path d="M19.4444 2.44444L17.8889 0.555556C17.6667 0.222222 17.2222 0 16.6667 0H3.33333C2.77778 0 2.33333 0.222222 2 0.555556L0.555556 2.44444C0.222222 2.88889 0 3.33333 0 3.88889V17.7778C0 19 1 20 2.22222 20H17.7778C19 20 20 19 20 17.7778V3.88889C20 3.33333 19.7778 2.88889 19.4444 2.44444ZM10 16.1111L3.88889 10H7.77778V7.77778H12.2222V10H16.1111L10 16.1111ZM2.33333 2.22222L3.22222 1.11111H16.5556L17.5556 2.22222H2.33333Z" fill="#FF0000"/>
</svg>
