<svg width="287" height="186" viewBox="0 0 287 186" fill="none" xmlns="http://www.w3.org/2000/svg">
<circle cx="142.126" cy="176.748" r="2.98901" transform="rotate(-87.304 142.126 176.748)" fill="#EDDCFF"/>
<circle cx="256.989" cy="8.98901" r="2.98901" fill="#EDDCFF"/>
<circle cx="277.989" cy="163.989" r="2.98901" fill="#EDDCFF"/>
<circle cx="283.989" cy="96.989" r="2.98901" fill="#EDDCFF"/>
<circle cx="158.886" cy="169.253" r="5.97802" transform="rotate(-87.304 158.886 169.253)" fill="#E0C1FF"/>
<circle cx="167.989" cy="16.989" r="2.98901" fill="#EDDCFF"/>
<circle cx="24.989" cy="2.98901" r="2.98901" fill="#EDDCFF"/>
<circle cx="2.98901" cy="118.989" r="2.98901" fill="#EDDCFF"/>
<circle cx="66.989" cy="30.989" r="2.98901" fill="#EDDCFF"/>
<circle cx="200.989" cy="182.989" r="2.98901" fill="#EDDCFF"/>
<circle cx="51.978" cy="39.978" r="5.97802" fill="#E0C1FF"/>
<circle cx="250.978" cy="21.978" r="5.97802" fill="#E0C1FF"/>
<circle cx="272.978" cy="102.978" r="5.97802" fill="#E0C1FF"/>
<rect x="53.2306" y="162.366" width="3.53155" height="12.3604" rx="1.76578" transform="rotate(-136.405 53.2306 162.366)" fill="#D9B7FC"/>
<rect x="64.1897" y="150.857" width="3.53155" height="7.06311" rx="1.76578" transform="rotate(-136.405 64.1897 150.857)" fill="#D9B7FC"/>
<rect x="61.7542" y="153.414" width="3.53155" height="7.06311" rx="1.76578" transform="rotate(-46.4051 61.7542 153.414)" fill="#D9B7FC"/>
<rect x="51.5233" y="143.673" width="3.53155" height="10.5947" rx="1.76578" transform="rotate(-46.4051 51.5233 143.673)" fill="#D9B7FC"/>
<rect x="258.761" y="140.054" width="3.39753" height="11.8913" rx="1.69876" transform="rotate(62.9822 258.761 140.054)" fill="#D9B7FC"/>
<rect x="245.141" y="146.999" width="3.39753" height="6.79505" rx="1.69876" transform="rotate(62.9822 245.141 146.999)" fill="#D9B7FC"/>
<rect x="248.167" y="145.456" width="3.39753" height="6.79505" rx="1.69876" transform="rotate(152.982 248.167 145.456)" fill="#D9B7FC"/>
<rect x="254.341" y="157.563" width="3.39753" height="10.1926" rx="1.69876" transform="rotate(152.982 254.341 157.563)" fill="#D9B7FC"/>
<rect x="208.618" y="36.7129" width="3.80022" height="7.60043" rx="1.90011" transform="rotate(119.108 208.618 36.7129)" fill="#D9B7FC"/>
<rect x="198.658" y="31.167" width="3.80022" height="11.4006" rx="1.90011" transform="rotate(119.108 198.658 31.167)" fill="#D9B7FC"/>
<rect x="201.977" y="33.0151" width="3.80022" height="13.3008" rx="1.90011" transform="rotate(-150.892 201.977 33.0151)" fill="#D9B7FC"/>
<rect x="198.28" y="39.6558" width="3.80022" height="3.80021" rx="1.90011" transform="rotate(-150.892 198.28 39.6558)" fill="#D9B7FC"/>
</svg>
