<svg width="40" height="47" viewBox="0 0 40 47" fill="none" xmlns="http://www.w3.org/2000/svg">
<path opacity="0.7" d="M35.3808 27.0171V18.9119C35.3808 11.6408 30.6774 5.51563 24.3058 3.67355C23.6751 2.00551 22.1338 0.8302 20.3127 0.8302C18.4916 0.8302 16.9504 2.00551 16.3197 3.67355C9.94803 5.51789 5.24463 11.6408 5.24463 18.9119V27.0171L1.57016 30.8752C1.36988 31.0848 1.21105 31.3338 1.1028 31.6081C0.99456 31.8823 0.939045 32.1764 0.939455 32.4732V36.9936C0.939455 37.5931 1.16624 38.168 1.56993 38.5919C1.97362 39.0157 2.52114 39.2539 3.09204 39.2539H37.5334C38.1043 39.2539 38.6518 39.0157 39.0555 38.5919C39.4592 38.168 39.686 37.5931 39.686 36.9936V32.4732C39.6864 32.1764 39.6309 31.8823 39.5227 31.6081C39.4144 31.3338 39.2556 31.0848 39.0553 30.8752L35.3808 27.0171ZM35.3808 34.7334H5.24463V33.4089L8.91909 29.5508C9.11937 29.3412 9.27821 29.0922 9.38645 28.8179C9.4947 28.5437 9.55021 28.2497 9.5498 27.9528V18.9119C9.5498 12.6805 14.3781 7.61085 20.3127 7.61085C26.2474 7.61085 31.0757 12.6805 31.0757 18.9119V27.9528C31.0757 28.554 31.3017 29.1281 31.7064 29.5508L35.3808 33.4089V34.7334ZM20.3127 46.0345C21.6458 46.0363 22.9463 45.6019 24.0335 44.7918C25.1206 43.9816 25.9403 42.836 26.3787 41.5141H14.2467C14.6851 42.836 15.5049 43.9816 16.592 44.7918C17.6791 45.6019 18.9796 46.0363 20.3127 46.0345Z" fill="#4D4D4D"/>
</svg>
