<svg width="10" height="10" viewBox="0 0 10 10" fill="none" xmlns="http://www.w3.org/2000/svg">
<path fill-rule="evenodd" clip-rule="evenodd" d="M5 0C7.76142 0 10 2.23858 10 5C10 7.76142 7.76142 10 5 10C2.23858 10 0 7.76142 0 5C0 2.23858 2.23858 0 5 0ZM8.16036 2.54774L2.54774 8.16036C3.22499 8.68663 4.0759 9 5 9C7.20914 9 9 7.20914 9 5C9 4.0759 8.68663 3.22499 8.16036 2.54774ZM5 1C2.79086 1 1 2.79086 1 5C1 5.9241 1.31337 6.77501 1.83964 7.45226L7.45226 1.83964C6.77501 1.31337 5.9241 1 5 1Z" fill="#C0C0C0"/>
</svg>
