<svg width="15" height="15" viewBox="0 0 15 15" fill="none" xmlns="http://www.w3.org/2000/svg">
<path fill-rule="evenodd" clip-rule="evenodd" d="M5.66603 5.87404C5.87467 5.73494 6 5.50076 6 5.25V2.25C6 1.00736 4.99264 0 3.75 0H0.75C0.335786 0 0 0.335786 0 0.75C0 8.20584 6.79416 15 14.25 15C14.6642 15 15 14.6642 15 14.25V11.25C15 10.0074 13.9926 9 12.75 9H9.75C9.49924 9 9.26506 9.12533 9.12596 9.33397L7.69695 11.4775C6.14054 10.4711 4.77694 9.14188 3.72806 7.61172L3.52251 7.30305L5.66603 5.87404ZM10.1514 10.5H12.75C13.1642 10.5 13.5 10.8358 13.5 11.25V13.474C12.0471 13.3735 10.6291 12.9849 9.30656 12.3687L9.00308 12.2225L10.1514 10.5ZM1.526 1.5H3.75C4.16421 1.5 4.5 1.83579 4.5 2.25V4.84861L2.77753 5.99692C2.07662 4.58884 1.63428 3.0647 1.526 1.5Z" fill="#C0C0C0"/>
</svg>
