<svg width="24" height="20" viewBox="0 0 24 20" fill="none" xmlns="http://www.w3.org/2000/svg">
<path fill-rule="evenodd" clip-rule="evenodd" d="M14.0045 0.151367C15.2957 0.151367 16.4762 0.8539 17.0536 1.96607L18.07 3.92357C18.2625 4.29429 18.656 4.52847 19.0864 4.52847H19.9545C21.8373 4.52847 23.3636 5.99824 23.3636 7.8113V16.5655C23.3636 18.3786 21.8373 19.8483 19.9545 19.8483H4.04544C2.16265 19.8483 0.636353 18.3786 0.636353 16.5655V7.8113C0.636353 5.99824 2.16265 4.52847 4.04544 4.52847H4.91355C5.34397 4.52847 5.73745 4.29429 5.92994 3.92357L6.94634 1.96607C7.52381 0.8539 8.70425 0.151367 9.99552 0.151367H14.0045ZM14.0045 2.33992H9.99552C9.5651 2.33992 9.17162 2.5741 8.97913 2.94482L7.96273 4.90232C7.38526 6.01449 6.20482 6.71702 4.91355 6.71702H4.04544C3.41785 6.71702 2.90908 7.20695 2.90908 7.8113V16.5655C2.90908 17.1699 3.41785 17.6598 4.04544 17.6598H19.9545C20.5821 17.6598 21.0909 17.1699 21.0909 16.5655V7.8113C21.0909 7.20695 20.5821 6.71702 19.9545 6.71702H19.0864C17.7952 6.71702 16.6147 6.01449 16.0372 4.90232L15.0209 2.94482C14.8284 2.5741 14.4349 2.33992 14.0045 2.33992ZM12 6.71702C14.5104 6.71702 16.5454 8.67672 16.5454 11.0941C16.5454 13.5115 14.5104 15.4712 12 15.4712C9.4896 15.4712 7.45453 13.5115 7.45453 11.0941C7.45453 8.67672 9.4896 6.71702 12 6.71702ZM12 8.90558C10.7448 8.90558 9.72726 9.88542 9.72726 11.0941C9.72726 12.3028 10.7448 13.2827 12 13.2827C13.2552 13.2827 14.2727 12.3028 14.2727 11.0941C14.2727 9.88542 13.2552 8.90558 12 8.90558Z" fill="white"/>
</svg>
