<svg width="15" height="15" viewBox="0 0 15 15" fill="none" xmlns="http://www.w3.org/2000/svg">
<path fill-rule="evenodd" clip-rule="evenodd" d="M6.75 0C7.99264 0 9 1.00736 9 2.25L9.00007 3.12801C9.23463 3.04511 9.48705 3 9.75 3H12.75C13.9926 3 15 4.00736 15 5.25V12.75C15 13.9926 13.9926 15 12.75 15H2.25C1.00736 15 0 13.9926 0 12.75V2.25C0 1.00736 1.00736 0 2.25 0H6.75ZM6.75 1.5H2.25C1.83579 1.5 1.5 1.83579 1.5 2.25V12.75C1.5 13.1642 1.83579 13.5 2.25 13.5H7.5V2.25C7.5 1.83579 7.16421 1.5 6.75 1.5ZM12.75 4.5H9.75C9.33579 4.5 9 4.83579 9 5.25V13.5H12.75C13.1642 13.5 13.5 13.1642 13.5 12.75V5.25C13.5 4.83579 13.1642 4.5 12.75 4.5ZM5.25 9C5.66421 9 6 9.33579 6 9.75C6 10.1642 5.66421 10.5 5.25 10.5H3.75C3.33579 10.5 3 10.1642 3 9.75C3 9.33579 3.33579 9 3.75 9H5.25ZM12 9C12.4142 9 12.75 9.33579 12.75 9.75C12.75 10.1642 12.4142 10.5 12 10.5H10.5C10.0858 10.5 9.75 10.1642 9.75 9.75C9.75 9.33579 10.0858 9 10.5 9H12ZM5.25 6C5.66421 6 6 6.33579 6 6.75C6 7.16421 5.66421 7.5 5.25 7.5H3.75C3.33579 7.5 3 7.16421 3 6.75C3 6.33579 3.33579 6 3.75 6H5.25ZM12 6C12.4142 6 12.75 6.33579 12.75 6.75C12.75 7.16421 12.4142 7.5 12 7.5H10.5C10.0858 7.5 9.75 7.16421 9.75 6.75C9.75 6.33579 10.0858 6 10.5 6H12ZM5.25 3C5.66421 3 6 3.33579 6 3.75C6 4.16421 5.66421 4.5 5.25 4.5H3.75C3.33579 4.5 3 4.16421 3 3.75C3 3.33579 3.33579 3 3.75 3H5.25Z" fill="#C0C0C0"/>
</svg>
