<svg width="10" height="10" viewBox="0 0 10 10" fill="none" xmlns="http://www.w3.org/2000/svg">
<path d="M5 0C6.0711 0 6.94554 0.841984 6.99755 1.90018L7 2L7.00045 2.08551C7.42414 2.23542 7.76041 2.5703 7.91219 2.9931C8.18877 2.96654 8.44846 2.84444 8.64645 2.64645C8.85019 2.44271 8.97357 2.17364 8.99621 1.88848L9 1.79289V1.5L9.00336 1.44169C9.03225 1.19302 9.24358 1 9.5 1C9.75642 1 9.96775 1.19302 9.99664 1.44169L10 1.5V1.79289L9.99691 1.90961C9.96819 2.45245 9.73987 2.96723 9.35355 3.35355C8.98886 3.71825 8.50967 3.94214 8.00047 3.99022L8 5H9.5C9.77614 5 10 5.22386 10 5.5C10 5.77614 9.77614 6 9.5 6H8L8.00047 7.00978C8.50967 7.05786 8.98886 7.28175 9.35355 7.64645C9.73987 8.03276 9.96819 8.54755 9.99691 9.09039L10 9.20711V9.5C10 9.77614 9.77614 10 9.5 10C9.24358 10 9.03225 9.80698 9.00336 9.55831L9 9.5V9.20711C9 8.88696 8.87282 8.57993 8.64645 8.35355C8.44271 8.14981 8.17364 8.02643 7.88848 8.00379L7.82864 8.00185C7.41628 9.16608 6.30553 10 5 10C3.69447 10 2.58372 9.16608 2.17136 8.00185L2.11152 8.00379C1.82636 8.02643 1.55729 8.14981 1.35355 8.35355C1.14981 8.55729 1.02643 8.82636 1.00379 9.11152L1 9.20711V9.5L0.996636 9.55831C0.967754 9.80698 0.756418 10 0.5 10C0.243582 10 0.0322464 9.80698 0.00336385 9.55831L0 9.5V9.20711L0.00308526 9.09039C0.0318106 8.54755 0.260128 8.03276 0.646447 7.64645C1.01126 7.28163 1.49064 7.05772 2.00003 7.00973L2 6H0.5C0.223858 6 0 5.77614 0 5.5C0 5.22386 0.223858 5 0.5 5H2L2.00003 3.99027C1.49064 3.94228 1.01126 3.71837 0.646447 3.35355C0.260128 2.96723 0.0318106 2.45245 0.00308526 1.90961L0 1.79289V1.5C0 1.22386 0.223858 1 0.5 1C0.756418 1 0.967754 1.19302 0.996636 1.44169L1 1.5V1.79289C1 2.11304 1.12718 2.42007 1.35355 2.64645C1.55154 2.84444 1.81123 2.96654 2.08742 2.99406C2.23965 2.57013 2.57612 2.23516 3.00004 2.08534L3 2C3 0.89543 3.89543 0 5 0ZM6.5 3H3.5C3.24358 3 3.03225 3.19302 3.00336 3.44169L3 3.5V7C3 8.10457 3.89543 9 5 9C6.0711 9 6.94554 8.15802 6.99755 7.09982L7 7V3.5C7 3.24358 6.80698 3.03225 6.55831 3.00336L6.5 3ZM5 1C4.47282 1 4.04092 1.40794 4.00274 1.92537L4 2H6C6 1.49918 5.63183 1.08435 5.15139 1.01138L5.07463 1.00274L5 1Z" fill="#C0C0C0"/>
</svg>
