<svg width="15" height="11" viewBox="0 0 15 11" fill="none" xmlns="http://www.w3.org/2000/svg">
<path d="M14.4098 3.6264C14.4121 3.66767 14.4091 3.70967 14.3987 3.75139L13.4735 7.45232C13.4268 7.63877 13.2597 7.76987 13.0676 7.77088L7.51621 7.79892C7.51548 7.79892 7.5148 7.79892 7.51407 7.79892H1.96262C1.7695 7.79892 1.60121 7.66737 1.55456 7.47997L0.629327 3.76501C0.618673 3.72217 0.615589 3.67899 0.61828 3.63666C0.260355 3.52389 0 3.18896 0 2.79425C0 2.30724 0.396168 1.91107 0.883178 1.91107C1.37019 1.91107 1.76636 2.30724 1.76636 2.79425C1.76636 3.06851 1.64069 3.31389 1.44393 3.476L2.60232 4.64314C2.89508 4.93815 3.30135 5.10727 3.71697 5.10727C4.20841 5.10727 4.67697 4.87389 4.97204 4.48288L6.87578 1.96041C6.71585 1.8006 6.61682 1.57978 6.61682 1.3363C6.61682 0.849293 7.01299 0.453125 7.5 0.453125C7.98701 0.453125 8.38318 0.849293 8.38318 1.3363C8.38318 1.57249 8.28942 1.78686 8.13785 1.9455C8.13836 1.94617 8.13897 1.94673 8.13948 1.94746L10.0294 4.47688C10.3244 4.87165 10.7946 5.10733 11.2875 5.10733C11.7069 5.10733 12.1013 4.94398 12.3979 4.64735L13.5636 3.48167C13.3627 3.31961 13.2336 3.07187 13.2336 2.79425C13.2336 2.30724 13.6298 1.91107 14.1168 1.91107C14.6038 1.91107 15 2.30724 15 2.79425C15 3.17841 14.753 3.50516 14.4098 3.6264ZM13.3832 9.11668C13.3832 8.88441 13.1949 8.69612 12.9626 8.69612H2.08413C1.85187 8.69612 1.66357 8.88441 1.66357 9.11668V10.126C1.66357 10.3583 1.85187 10.5466 2.08413 10.5466H12.9626C13.1949 10.5466 13.3832 10.3583 13.3832 10.126V9.11668Z" fill="#A14BF7"/>
</svg>
