<svg width="16" height="20" viewBox="0 0 16 20" fill="none" xmlns="http://www.w3.org/2000/svg">
<path fill-rule="evenodd" clip-rule="evenodd" d="M14.9059 3.80597C15.2301 3.80597 15.5 4.10205 15.5 4.4788V4.82713C15.5 5.19471 15.2301 5.49996 14.9059 5.49996H1.09488C0.769883 5.49996 0.5 5.19471 0.5 4.82713V4.4788C0.5 4.10205 0.769883 3.80597 1.09488 3.80597H3.52464C4.01821 3.80597 4.44775 3.42006 4.55879 2.87557L4.68603 2.25041C4.88378 1.39883 5.53458 0.833252 6.27939 0.833252H9.72061C10.4573 0.833252 11.1154 1.39883 11.3059 2.20549L11.442 2.87465C11.5522 3.42006 11.9818 3.80597 12.4762 3.80597H14.9059ZM13.6715 16.5394C13.9252 13.9389 14.3693 7.76061 14.3693 7.69827C14.3855 7.50944 14.3296 7.33069 14.2186 7.18678C14.0994 7.05203 13.9487 6.97228 13.7825 6.97228H2.22375C2.0568 6.97228 1.89795 7.05203 1.78773 7.18678C1.67588 7.33069 1.62077 7.50944 1.62888 7.69827C1.63037 7.70973 1.6463 7.92735 1.67294 8.29119C1.7913 9.90749 2.12096 14.4092 2.33398 16.5394C2.48472 18.1087 3.4208 19.0951 4.7767 19.1308C5.82301 19.1574 6.90092 19.1666 8.00315 19.1666C9.04135 19.1666 10.0958 19.1574 11.1745 19.1308C12.5774 19.1042 13.5127 18.1353 13.6715 16.5394Z" fill="#FF0000"/>
</svg>
