<svg width="15" height="15" viewBox="0 0 15 15" fill="none" xmlns="http://www.w3.org/2000/svg">
<path fill-rule="evenodd" clip-rule="evenodd" d="M7.5 0C11.6421 0 15 3.35786 15 7.5C15 11.6421 11.6421 15 7.5 15C3.35786 15 0 11.6421 0 7.5C0 3.35786 3.35786 0 7.5 0ZM7.5 1.5C4.18629 1.5 1.5 4.18629 1.5 7.5C1.5 10.8137 4.18629 13.5 7.5 13.5C10.8137 13.5 13.5 10.8137 13.5 7.5C13.5 4.18629 10.8137 1.5 7.5 1.5ZM7.5 6C7.91421 6 8.25 6.33579 8.25 6.75V11.25C8.25 11.6642 7.91421 12 7.5 12C7.08579 12 6.75 11.6642 6.75 11.25V6.75C6.75 6.33579 7.08579 6 7.5 6ZM7.5 3C7.91421 3 8.25 3.33579 8.25 3.75C8.25 4.16421 7.91421 4.5 7.5 4.5C7.08579 4.5 6.75 4.16421 6.75 3.75C6.75 3.33579 7.08579 3 7.5 3Z" fill="#C0C0C0"/>
</svg>
