<svg width="35" height="35" viewBox="0 0 35 35" fill="none" xmlns="http://www.w3.org/2000/svg">
<rect x="0.5" y="0.5" width="34" height="34" rx="4.5" fill="white" stroke="#A14BF7"/>
<g clip-path="url(#clip0)">
<path d="M25.0322 7.99997H8.98432C8.70128 7.99938 8.4418 8.17506 8.31241 8.45485C8.18124 8.73841 8.20426 9.07987 8.37184 9.33884L14.2511 18.5412C14.2531 18.5443 14.2552 18.5473 14.2572 18.5505C14.4708 18.8709 14.5863 19.259 14.587 19.6579V27.1605C14.5857 27.3828 14.6643 27.5962 14.8052 27.7538C14.9462 27.9114 15.1379 27.9999 15.3378 27.9999C15.4395 27.9999 15.54 27.9773 15.6338 27.934L18.9375 26.5343C19.2336 26.434 19.4301 26.1236 19.4301 25.7499V19.6579C19.4306 19.2592 19.5463 18.8709 19.7597 18.5505C19.7617 18.5473 19.7638 18.5443 19.7658 18.5412L25.6449 9.33844C25.8125 9.07967 25.8355 8.73841 25.7043 8.45485C25.5749 8.17506 25.3154 7.99938 25.0322 7.99997ZM19.023 17.9491C18.6947 18.4442 18.5171 19.0428 18.516 19.6579V25.6265L15.5007 26.9039V19.6579C15.4996 19.0428 15.3221 18.4442 14.9935 17.9491L9.28575 9.01523H24.731L19.023 17.9491Z" fill="#A14BF7"/>
</g>
<defs>
<clipPath id="clip0">
<rect width="18" height="20" fill="white" transform="translate(8 8)"/>
</clipPath>
</defs>
</svg>
