<svg width="15" height="15" viewBox="0 0 15 15" fill="none" xmlns="http://www.w3.org/2000/svg">
<path fill-rule="evenodd" clip-rule="evenodd" d="M11.9207 0C13.0826 0 14.0244 0.94184 14.0244 2.10366V11.9207C14.0244 13.0826 13.0826 14.0244 11.9207 14.0244H2.10366C0.94184 14.0244 0 13.0826 0 11.9207V2.10366C0 0.94184 0.94184 0 2.10366 0H11.9207ZM12.622 7.22396L9.6993 11.6085C9.4835 11.9322 9.05018 12.0145 8.73301 11.8071L8.66694 11.7582L5.04002 8.73577L2.26354 12.622H11.9207C12.308 12.622 12.622 12.308 12.622 11.9207V7.22396ZM11.9207 1.40244H2.10366C1.71639 1.40244 1.40244 1.71639 1.40244 2.10366V11.4145L4.33793 7.30584C4.55805 6.99768 4.9783 6.92364 5.28806 7.12368L5.35745 7.17472L8.96527 10.1812L12.622 4.69537V2.10366C12.622 1.71639 12.308 1.40244 11.9207 1.40244ZM4.20732 2.80488C4.98186 2.80488 5.60976 3.43277 5.60976 4.20732C5.60976 4.98186 4.98186 5.60976 4.20732 5.60976C3.43277 5.60976 2.80488 4.98186 2.80488 4.20732C2.80488 3.43277 3.43277 2.80488 4.20732 2.80488Z" fill="white"/>
</svg>
