<svg width="28" height="28" viewBox="0 0 28 28" fill="none" xmlns="http://www.w3.org/2000/svg">
<path fill-rule="evenodd" clip-rule="evenodd" d="M14 0.666504C21.3638 0.666504 27.3333 6.63604 27.3333 13.9998C27.3333 21.3636 21.3638 27.3332 14 27.3332C6.6362 27.3332 0.666668 21.3636 0.666668 13.9998C0.666668 6.63604 6.6362 0.666504 14 0.666504ZM14 3.33317C8.10896 3.33317 3.33333 8.1088 3.33333 13.9998C3.33333 19.8909 8.10896 24.6665 14 24.6665C19.891 24.6665 24.6667 19.8909 24.6667 13.9998C24.6667 8.1088 19.891 3.33317 14 3.33317ZM14 11.3332C14.7364 11.3332 15.3333 11.9301 15.3333 12.6665V20.6665C15.3333 21.4029 14.7364 21.9998 14 21.9998C13.2636 21.9998 12.6667 21.4029 12.6667 20.6665V12.6665C12.6667 11.9301 13.2636 11.3332 14 11.3332ZM14 5.99984C14.7364 5.99984 15.3333 6.59679 15.3333 7.33317C15.3333 8.06955 14.7364 8.6665 14 8.6665C13.2636 8.6665 12.6667 8.06955 12.6667 7.33317C12.6667 6.59679 13.2636 5.99984 14 5.99984Z" fill="url(#paint0_linear)"/>
<defs>
<linearGradient id="paint0_linear" x1="27.3333" y1="0.666509" x2="-0.730364" y2="2.22819" gradientUnits="userSpaceOnUse">
<stop stop-color="#520093"/>
<stop offset="0.0001" stop-color="#520093"/>
<stop offset="1" stop-color="#A14BF7"/>
</linearGradient>
</defs>
</svg>
