<svg width="27" height="27" viewBox="0 0 27 27" fill="none" xmlns="http://www.w3.org/2000/svg">
<path fill-rule="evenodd" clip-rule="evenodd" d="M13.5 0C6.04416 0 0 6.04416 0 13.5C0 20.9558 6.04416 27 13.5 27C20.9558 27 27 20.9558 27 13.5C27 6.04416 20.9558 0 13.5 0ZM10.5318 6.34364C11.2998 6.30869 11.5452 6.30014 13.5006 6.30014H13.4984C15.4544 6.30014 15.6989 6.30869 16.4669 6.34364C17.2334 6.37874 17.7569 6.50009 18.2159 6.67815C18.6899 6.86189 19.0905 7.10789 19.491 7.5084C19.8915 7.90861 20.1375 8.31031 20.322 8.78387C20.499 9.24167 20.6205 9.76488 20.6565 10.5314C20.691 11.2994 20.7 11.5448 20.7 13.5002C20.7 15.4556 20.691 15.7004 20.6565 16.4684C20.6205 17.2346 20.499 17.758 20.322 18.216C20.1375 18.6894 19.8915 19.0911 19.491 19.4913C19.0909 19.8918 18.6898 20.1384 18.2164 20.3223C17.7583 20.5003 17.2345 20.6217 16.468 20.6568C15.7 20.6917 15.4553 20.7003 13.4997 20.7003C11.5445 20.7003 11.2992 20.6917 10.5312 20.6568C9.76485 20.6217 9.2415 20.5003 8.78339 20.3223C8.31014 20.1384 7.90843 19.8918 7.50838 19.4913C7.10803 19.0911 6.86202 18.6894 6.67797 18.2158C6.50007 17.758 6.37872 17.2348 6.34347 16.4683C6.30867 15.7003 6.29997 15.4556 6.29997 13.5002C6.29997 11.5448 6.30897 11.2992 6.34332 10.5312C6.37782 9.76502 6.49932 9.24167 6.67782 8.78371C6.86232 8.31031 7.10833 7.90861 7.50883 7.5084C7.90903 7.10805 8.31074 6.86205 8.78429 6.67815C9.2421 6.50009 9.7653 6.37874 10.5318 6.34364Z" fill="#7000E0"/>
<path fill-rule="evenodd" clip-rule="evenodd" d="M13.2525 7.59744H13.2607L13.5007 7.5975C15.4231 7.5975 15.651 7.6044 16.4101 7.6389C17.1121 7.67101 17.4931 7.78831 17.7469 7.88686C18.083 8.01736 18.3225 8.17336 18.5744 8.42536C18.8264 8.67737 18.9824 8.91737 19.1132 9.25337C19.2117 9.50687 19.3292 9.88788 19.3611 10.5899C19.3956 11.3489 19.4031 11.5769 19.4031 13.4984C19.4031 15.4199 19.3956 15.6479 19.3611 16.4069C19.329 17.109 19.2117 17.49 19.1132 17.7435C18.9827 18.0795 18.8264 18.3187 18.5744 18.5706C18.3224 18.8226 18.0831 18.9786 17.7469 19.1091C17.4934 19.2081 17.1121 19.3251 16.4101 19.3572C15.6511 19.3917 15.4231 19.3992 13.5007 19.3992C11.5781 19.3992 11.3503 19.3917 10.5913 19.3572C9.88927 19.3248 9.50826 19.2075 9.25431 19.1089C8.91831 18.9784 8.67831 18.8224 8.4263 18.5704C8.1743 18.3184 8.0183 18.079 7.8875 17.7429C7.78895 17.4894 7.6715 17.1084 7.63954 16.4063C7.60504 15.6473 7.59814 15.4193 7.59814 13.4966C7.59814 11.5739 7.60504 11.3471 7.63954 10.5881C7.67165 9.88608 7.78895 9.50507 7.8875 9.25127C8.018 8.91527 8.1743 8.67526 8.4263 8.42326C8.67831 8.17126 8.91831 8.01526 9.25431 7.88445C9.50811 7.78545 9.88927 7.66846 10.5913 7.6362C11.2555 7.6062 11.5129 7.59721 12.8548 7.5957V7.5975C12.9779 7.59731 13.1101 7.59737 13.2525 7.59744ZM17.344 8.79287C16.867 8.79287 16.48 9.17943 16.48 9.65658C16.48 10.1336 16.867 10.5206 17.344 10.5206C17.821 10.5206 18.2081 10.1336 18.2081 9.65658C18.2081 9.17957 17.821 8.79257 17.344 8.79257V8.79287ZM9.80318 13.5003C9.80318 11.4584 11.4587 9.80285 13.5006 9.80276C15.5425 9.80276 17.1977 11.4583 17.1977 13.5003C17.1977 15.5423 15.5427 17.1971 13.5007 17.1971C11.4588 17.1971 9.80318 15.5423 9.80318 13.5003Z" fill="#7000E0"/>
<path d="M13.5006 11.1001C14.826 11.1001 15.9006 12.1746 15.9006 13.5001C15.9006 14.8255 14.826 15.9001 13.5006 15.9001C12.175 15.9001 11.1006 14.8255 11.1006 13.5001C11.1006 12.1746 12.175 11.1001 13.5006 11.1001Z" fill="#7000E0"/>
</svg>
