<svg width="15" height="15" viewBox="0 0 15 15" fill="none" xmlns="http://www.w3.org/2000/svg">
<path fill-rule="evenodd" clip-rule="evenodd" d="M12 0C12.1989 0 12.3897 0.0790176 12.5303 0.21967L14.7803 2.46967C14.921 2.61032 15 2.80109 15 3V7.5C15 7.69891 14.921 7.88968 14.7803 8.03033L12.5303 10.2803C12.3897 10.421 12.1989 10.5 12 10.5H8.56066L4.28033 14.7803C4.13968 14.921 3.94891 15 3.75 15H0.75C0.335786 15 0 14.6642 0 14.25V11.25C0 11.0511 0.0790176 10.8603 0.21967 10.7197L4.5 6.43934V3C4.5 2.80109 4.57902 2.61032 4.71967 2.46967L6.96967 0.21967C7.11032 0.0790176 7.30109 0 7.5 0H12ZM11.6893 1.5H7.81066L6 3.31066V6.75C6 6.94891 5.92098 7.13968 5.78033 7.28033L1.5 11.5607V13.5H3.43934L7.71967 9.21967C7.86032 9.07902 8.05109 9 8.25 9H11.6893L13.5 7.18934V3.31066L11.6893 1.5ZM10.5 3C11.3284 3 12 3.67157 12 4.5C12 5.32843 11.3284 6 10.5 6C9.67157 6 9 5.32843 9 4.5C9 3.67157 9.67157 3 10.5 3Z" fill="#C0C0C0"/>
</svg>
