<svg width="8" height="14" viewBox="0 0 8 14" fill="none" xmlns="http://www.w3.org/2000/svg">
<path d="M6 0C7.06512 0 7.93577 0.874244 7.9966 1.97661L8 2.1V4.2C8 4.38227 7.93236 4.55607 7.81345 4.68566L7.7498 4.74661L5.06667 7L7.7498 9.25339C7.90794 9.38623 8 9.58735 8 9.8V11.9C8 13.0598 7.10457 14 6 14H2C0.895431 14 0 13.0598 0 11.9V9.8C0 9.58735 0.09206 9.38623 0.250203 9.25339L2.93267 7L0.250203 4.74661C0.114652 4.63274 0.0276514 4.46872 0.00556056 4.29026L0 4.2V2.1C0 0.981623 0.832614 0.0674373 1.88249 0.00356483L2 0H6ZM4 7.8967L1.33333 10.136V11.9C1.33333 12.2866 1.63181 12.6 2 12.6H6L6.07775 12.5953C6.40931 12.5549 6.66667 12.259 6.66667 11.9V10.1367L4 7.8967ZM6 1.4H2C1.65811 1.4 1.37633 1.67023 1.33782 2.01837L1.33333 2.1V2.8H6.66667V2.1C6.66667 1.76863 6.44738 1.49104 6.15286 1.41849L6.07775 1.40471L6 1.4Z" fill="#A14BF7"/>
</svg>
