<svg width="11" height="13" viewBox="0 0 11 13" fill="none" xmlns="http://www.w3.org/2000/svg">
<path fill-rule="evenodd" clip-rule="evenodd" d="M5.5 0C8.53757 0 11 2.46735 11 5.51099C11 7.52505 9.33636 10.2736 6.07949 12.5934L5.5 13L4.88889 12.5934C1.48049 10.2105 0 7.57189 0 5.51099C0 2.46735 2.46243 0 5.5 0ZM5.5 1.22466C3.13745 1.22466 1.22222 3.14372 1.22222 5.51099C1.22222 6.99824 2.62577 9.43209 5.5 11.503C8.37423 9.43209 9.77778 6.99824 9.77778 5.51099C9.77778 3.14372 7.86255 1.22466 5.5 1.22466ZM5.5 2.47619C6.85003 2.47619 7.94444 3.58482 7.94444 4.95238C7.94444 6.31994 6.85003 7.42857 5.5 7.42857C4.14997 7.42857 3.05556 6.31994 3.05556 4.95238C3.05556 3.58482 4.14997 2.47619 5.5 2.47619ZM5.5 3.71429C4.82499 3.71429 4.27778 4.2686 4.27778 4.95238C4.27778 5.63616 4.82499 6.19048 5.5 6.19048C6.17501 6.19048 6.72222 5.63616 6.72222 4.95238C6.72222 4.2686 6.17501 3.71429 5.5 3.71429Z" fill="#A8A8A8"/>
</svg>
