<svg width="16" height="20" viewBox="0 0 16 20" fill="none" xmlns="http://www.w3.org/2000/svg">
<path fill-rule="evenodd" clip-rule="evenodd" d="M6.37692 1.60752C6.10313 1.64531 5.83498 1.7134 5.57789 1.81036C4.04773 2.38757 3.13996 3.88845 3.38793 5.43112L3.42227 5.64473C3.46482 5.90941 3.53818 6.16882 3.64101 6.41819L4.65309 8.87255C7.07484 8.7166 9.50568 8.73012 11.9259 8.91312L13.5809 9.03826C14.6519 9.11928 15.5263 9.88209 15.6999 10.8866C16.1 13.2018 16.1 15.5632 15.6999 17.8783C15.5263 18.8828 14.6519 19.6456 13.5809 19.7266L11.9259 19.8518C9.31275 20.0494 6.68722 20.0494 4.07417 19.8518L2.4191 19.7266C1.34816 19.6456 0.473685 18.8828 0.300085 17.8783C-0.100028 15.5632 -0.100028 13.2018 0.300085 10.8866C0.473685 9.88209 1.34816 9.11928 2.4191 9.03826L2.92419 9.00011L2.09544 6.99032C1.94801 6.63279 1.84285 6.2609 1.78184 5.88145L1.7475 5.66783C1.38327 3.40198 2.71661 1.19752 4.9641 0.34971C5.34163 0.207282 5.7355 0.107292 6.13764 0.0517844C8.53142 -0.278685 10.8494 0.998794 11.7298 3.13362L11.8127 3.33487C11.9602 3.6924 12.0654 4.06429 12.1263 4.44375L12.2828 5.41641C12.3287 5.70253 12.1211 5.96981 11.8191 6.01339L11.2723 6.09231C10.9704 6.13588 10.6882 5.93925 10.6423 5.65313L10.4859 4.68047C10.4434 4.41578 10.37 4.15637 10.2672 3.907L10.1842 3.70574C9.58488 2.25228 8.00662 1.38253 6.37692 1.60752ZM7.99998 12.8103C7.08358 12.8103 6.34064 13.5142 6.34064 14.3825C6.34064 15.2507 7.08358 15.9546 7.99998 15.9546C8.91639 15.9546 9.65933 15.2507 9.65933 14.3825C9.65933 13.5142 8.91639 12.8103 7.99998 12.8103Z" fill="white"/>
</svg>
