<svg width="15" height="12" viewBox="0 0 15 12" fill="none" xmlns="http://www.w3.org/2000/svg">
<path fill-rule="evenodd" clip-rule="evenodd" d="M12.75 0C13.9926 0 15 1.00736 15 2.25V9.75C15 10.9926 13.9926 12 12.75 12H2.25C1.00736 12 0 10.9926 0 9.75V2.25C0 1.00736 1.00736 0 2.25 0H12.75ZM13.5 2.496L7.99388 7.31443C7.73467 7.54124 7.35829 7.56014 7.07956 7.37113L7.00612 7.31443L1.5 2.49675V9.75C1.5 10.1642 1.83579 10.5 2.25 10.5H12.75C13.1642 10.5 13.5 10.1642 13.5 9.75V2.496ZM12.36 1.5H2.6385L7.5 5.75342L12.36 1.5Z" fill="#C0C0C0"/>
</svg>
