<svg width="50" height="50" viewBox="0 0 50 50" fill="none" xmlns="http://www.w3.org/2000/svg">
<path d="M49.6957 21.1375L28.8624 0.304199C28.6665 0.110449 28.4019 0 28.1249 0H1.04149C0.620692 0 0.239442 0.254199 0.078993 0.64375C-0.0814562 1.0333 0.00604375 1.4792 0.306044 1.7792L48.2227 49.6959C48.4207 49.8938 48.6873 50.0001 48.9582 50.0001C49.0915 50.0001 49.2269 49.9751 49.3561 49.9209C49.7457 49.7604 49.9999 49.3792 49.9999 48.9584V21.875C49.9999 21.5979 49.8894 21.3333 49.6957 21.1375ZM21.8749 16.6667C21.7061 16.6667 21.5374 16.625 21.3832 16.5438C20.979 16.3271 20.7624 15.8708 20.854 15.4208L22.2623 8.3791L18.4456 12.1958C18.0393 12.6021 17.3789 12.6021 16.9726 12.1958C16.5664 11.7896 16.5664 11.1291 16.9726 10.7229L23.2226 4.47285C23.5476 4.14785 24.0476 4.0749 24.4497 4.2916C24.8539 4.5083 25.0705 4.96455 24.9789 5.41455L23.5706 12.4563L27.3893 8.63955C27.7956 8.2333 28.456 8.2333 28.8623 8.63955C29.2685 9.0458 29.2685 9.70625 28.8623 10.1125L22.6123 16.3625C22.4102 16.5625 22.1436 16.6667 21.8749 16.6667ZM30.9457 18.4438C30.7415 18.6479 30.4749 18.75 30.2082 18.75C29.9415 18.75 29.6749 18.6479 29.4707 18.4458L28.1249 17.0979L26.4727 18.75L28.8602 21.1375C29.2665 21.5437 29.2665 22.2042 28.8602 22.6105C28.6582 22.8146 28.3915 22.9167 28.1248 22.9167C27.8581 22.9167 27.5915 22.8146 27.3873 22.6125L24.2623 19.4875C23.856 19.0813 23.856 18.4208 24.2623 18.0145L30.5123 11.7646C30.9185 11.3583 31.579 11.3583 31.9852 11.7646L35.1102 14.8896C35.5165 15.2958 35.5165 15.9563 35.1102 16.3625C34.704 16.7687 34.0435 16.7687 33.6373 16.3625L31.2499 13.9729L29.5977 15.625L30.9457 16.9708C31.3519 17.3771 31.3519 18.0375 30.9457 18.4438ZM45.2582 26.9729L36.9249 31.1396C36.7769 31.2126 36.6166 31.2501 36.4582 31.2501C36.2124 31.2501 35.9686 31.1626 35.7749 30.9959C35.4561 30.7188 35.3374 30.2792 35.4707 29.8792L36.8957 25.6063L32.6227 27.0312C32.2248 27.1645 31.781 27.0437 31.506 26.7271C31.231 26.4104 31.1727 25.9541 31.3623 25.5791L35.529 17.2458C35.7873 16.7313 36.4123 16.525 36.9269 16.7791C37.4415 17.0374 37.6499 17.6624 37.3936 18.177L34.3519 24.2604L38.2165 22.9729C38.5894 22.8437 39.004 22.9437 39.2832 23.2249C39.5624 23.5041 39.6602 23.9166 39.5352 24.2916L38.2477 28.1562L44.331 25.1145C44.8477 24.8582 45.4706 25.0665 45.729 25.5812C45.9811 26.0896 45.7727 26.7167 45.2582 26.9729Z" fill="#A14BF7"/>
</svg>
