<svg width="28" height="28" viewBox="0 0 28 28" fill="none" xmlns="http://www.w3.org/2000/svg">
<path d="M14 0.93335C21.2165 0.93335 27.0667 6.78349 27.0667 14C27.0667 21.2165 21.2165 27.0667 14 27.0667C6.78349 27.0667 0.93335 21.2165 0.93335 14C0.93335 6.78349 6.78349 0.93335 14 0.93335ZM14 3.54668C8.2268 3.54668 3.54668 8.2268 3.54668 14C3.54668 19.7732 8.2268 24.4534 14 24.4534C19.7732 24.4534 24.4534 19.7732 24.4534 14C24.4534 8.2268 19.7732 3.54668 14 3.54668ZM11.3867 7.46668C12.1083 7.46668 12.6933 8.0517 12.6933 8.77335V19.2267C12.6933 19.9483 12.1083 20.5333 11.3867 20.5333C10.665 20.5333 10.08 19.9483 10.08 19.2267V8.77335C10.08 8.0517 10.665 7.46668 11.3867 7.46668ZM16.6133 7.46668C17.335 7.46668 17.92 8.0517 17.92 8.77335V19.2267C17.92 19.9483 17.335 20.5333 16.6133 20.5333C15.8917 20.5333 15.3067 19.9483 15.3067 19.2267V8.77335C15.3067 8.0517 15.8917 7.46668 16.6133 7.46668Z" fill="#A14BF7"/>
</svg>
