<svg width="39" height="39" viewBox="0 0 39 39" fill="none" xmlns="http://www.w3.org/2000/svg">
<circle cx="19.14" cy="19.14" r="18.64" fill="white" stroke="#A14BF7"/>
<path d="M13.6495 17.9012C15.0713 20.9996 17.6012 23.4631 20.7465 24.7985L21.2507 25.0233C22.4042 25.5376 23.7602 25.1469 24.4638 24.0976L25.1226 23.115C25.3369 22.7955 25.2717 22.3652 24.9724 22.1236L22.7379 20.3199C22.4097 20.0549 21.9271 20.1167 21.676 20.4556L20.9848 21.389C19.211 20.5135 17.7709 19.0726 16.896 17.2978L17.8287 16.6062C18.1676 16.3549 18.2292 15.872 17.9644 15.5436L16.1617 13.3078C15.9204 13.0084 15.4904 12.9431 15.1711 13.1573L14.1823 13.8207C13.1271 14.5287 12.7388 15.8967 13.2646 17.054L13.649 17.9L13.6495 17.9012Z" fill="#A14BF7"/>
</svg>
