<svg width="24" height="24" viewBox="0 0 24 24" fill="none" xmlns="http://www.w3.org/2000/svg">
<path fill-rule="evenodd" clip-rule="evenodd" d="M12 0C18.6274 0 24 5.37258 24 12C24 18.6274 18.6274 24 12 24C5.37258 24 0 18.6274 0 12C0 5.37258 5.37258 0 12 0ZM12 2.4C6.69807 2.4 2.4 6.69807 2.4 12C2.4 17.3019 6.69807 21.6 12 21.6C17.3019 21.6 21.6 17.3019 21.6 12C21.6 6.69807 17.3019 2.4 12 2.4ZM10.2046 6.16347L17.4046 10.9635C18.1518 11.3993 18.1957 12.4409 17.5365 12.948L10.2046 17.8365C9.40466 18.3032 8.4 17.7262 8.4 16.8V7.2C8.4 6.27385 9.40466 5.69681 10.2046 6.16347Z" fill="#A14BF7"/>
</svg>
