<svg width="35" height="35" viewBox="0 0 35 35" fill="none" xmlns="http://www.w3.org/2000/svg">
<rect x="0.5" y="0.5" width="34" height="34" rx="4.5" fill="white" stroke="#A14BF7"/>
<g clip-path="url(#clip0)">
<path d="M24.8331 16.8785H18.1214V10.1669C18.1214 9.82366 17.8432 9.54544 17.5 9.54544C17.1567 9.54544 16.8785 9.82366 16.8785 10.1669V16.8785H10.1669C9.82363 16.8785 9.54541 17.1568 9.54541 17.5C9.54541 17.8432 9.82363 18.1214 10.1669 18.1214H16.8785V24.8331C16.8785 25.1763 17.1567 25.4545 17.5 25.4545C17.8432 25.4545 18.1214 25.1763 18.1214 24.8331V18.1214H24.8331C25.1763 18.1214 25.4545 17.8432 25.4545 17.5C25.4545 17.1568 25.1763 16.8785 24.8331 16.8785Z" fill="#A14BF7"/>
</g>
<defs>
<clipPath id="clip0">
<rect width="15.9091" height="15.9091" fill="white" transform="translate(9.54541 9.54544)"/>
</clipPath>
</defs>
</svg>
