<svg width="15" height="15" viewBox="0 0 15 15" fill="none" xmlns="http://www.w3.org/2000/svg">
<path fill-rule="evenodd" clip-rule="evenodd" d="M3.75 10.5H11.25C13.3211 10.5 15 12.1789 15 14.25C15 14.6642 14.6642 15 14.25 15C13.8654 15 13.5484 14.7105 13.505 14.3375L13.4962 14.1178C13.4303 12.9804 12.5196 12.0697 11.3822 12.0038L11.25 12H3.75C2.50736 12 1.5 13.0074 1.5 14.25C1.5 14.6642 1.16421 15 0.75 15C0.335786 15 0 14.6642 0 14.25C0 12.2334 1.59173 10.5886 3.58733 10.5035L3.75 10.5H11.25H3.75ZM7.5 0C9.98528 0 12 2.01472 12 4.5C12 6.98528 9.98528 9 7.5 9C5.01472 9 3 6.98528 3 4.5C3 2.01472 5.01472 0 7.5 0ZM7.5 1.5C5.84315 1.5 4.5 2.84315 4.5 4.5C4.5 6.15685 5.84315 7.5 7.5 7.5C9.15685 7.5 10.5 6.15685 10.5 4.5C10.5 2.84315 9.15685 1.5 7.5 1.5Z" fill="#C0C0C0"/>
</svg>
