<svg width="17" height="17" viewBox="0 0 17 17" fill="none" xmlns="http://www.w3.org/2000/svg">
<path d="M8.5 0C3.80216 0 0 3.80166 0 8.5C0 13.1978 3.80166 17 8.5 17C13.1978 17 17 13.1983 17 8.5C17 3.80216 13.1983 0 8.5 0ZM11.6635 9.12266H10.0725V12.499C10.0725 12.812 9.81876 13.0657 9.50579 13.0657H7.49421C7.18127 13.0657 6.92753 12.812 6.92753 12.499V9.12266H5.33651C4.86456 9.12266 4.60056 8.57813 4.88972 8.20741L8.05319 4.15238C8.28016 3.86149 8.72034 3.86212 8.94678 4.15238L12.1102 8.20741C12.3995 8.57819 12.1354 9.12266 11.6635 9.12266Z" fill="#C4C4C4"/>
</svg>
