<svg width="15" height="15" viewBox="0 0 15 15" fill="none" xmlns="http://www.w3.org/2000/svg">
<path fill-rule="evenodd" clip-rule="evenodd" d="M7.5 0C11.6421 0 15 3.35786 15 7.5C15 11.6421 11.6421 15 7.5 15C3.35786 15 0 11.6421 0 7.5C0 3.35786 3.35786 0 7.5 0ZM7.5 1.5C4.18629 1.5 1.5 4.18629 1.5 7.5C1.5 10.8137 4.18629 13.5 7.5 13.5C10.8137 13.5 13.5 10.8137 13.5 7.5C13.5 4.18629 10.8137 1.5 7.5 1.5ZM3.96994 3.96994C4.24063 3.69925 4.66533 3.67842 4.95972 3.90747L5.03044 3.96994L7.50019 6.43969L9.96994 3.96994C10.2632 3.67669 10.7372 3.67669 11.0304 3.96994C11.3011 4.24063 11.322 4.66533 11.0929 4.95972L11.0304 5.03044L8.56069 7.50019L11.0304 9.96994C11.3237 10.2632 11.3237 10.7372 11.0304 11.0304C10.8842 11.1767 10.6922 11.2502 10.5002 11.2502C10.3402 11.2502 10.1802 11.1991 10.0467 11.0975L9.96994 11.0304L7.50019 8.56069L5.03044 11.0304C4.88419 11.1767 4.69219 11.2502 4.50019 11.2502C4.30819 11.2502 4.11619 11.1767 3.96994 11.0304C3.69925 10.7597 3.67842 10.335 3.90747 10.0407L3.96994 9.96994L6.43969 7.50019L3.96994 5.03044C3.67669 4.73719 3.67669 4.26319 3.96994 3.96994Z" fill="#C0C0C0"/>
</svg>
