<svg width="20" height="20" viewBox="0 0 20 20" fill="none" xmlns="http://www.w3.org/2000/svg">
<path d="M12.6299 19.2633C7.48092 17.0771 3.33931 13.0443 1.01177 7.97202L1.01083 7.96997L0.381586 6.58505C-0.479192 4.69053 0.156472 2.45101 1.88396 1.29203L3.50274 0.205962C4.02544 -0.144723 4.72926 -0.0378174 5.12441 0.452268L8.07555 4.11252C8.50902 4.65013 8.40809 5.44067 7.85341 5.85193L6.32646 6.98421C7.7588 9.88965 10.1163 12.2484 13.0201 13.6817L14.1516 12.1538C14.5626 11.5989 15.3527 11.4978 15.89 11.9315L19.5481 14.8843C20.0379 15.2798 20.1446 15.9842 19.794 16.5073L18.7154 18.1159C17.5636 19.8337 15.3437 20.4732 13.4553 19.6313L12.6299 19.2633Z" fill="#C4C4C4"/>
<path d="M11.6382 6.92645C11.6382 7.16818 11.7341 7.40001 11.9049 7.57094C12.0758 7.74186 12.3075 7.83789 12.5491 7.83789H17.1988C17.7019 7.83789 18.1097 7.42982 18.1097 6.92645C18.1097 6.42308 17.7019 6.01502 17.1988 6.01502H14.7481L18.5848 2.17603C18.9406 1.8201 18.9406 1.243 18.5848 0.887068C18.2291 0.531134 17.6524 0.531134 17.2967 0.887068L13.46 4.72605V2.27396C13.46 1.77059 13.0521 1.36252 12.5491 1.36252C12.046 1.36252 11.6382 1.77059 11.6382 2.27396V6.92645Z" fill="#C4C4C4"/>
</svg>
