<svg width="15" height="15" viewBox="0 0 15 15" fill="none" xmlns="http://www.w3.org/2000/svg">
<path fill-rule="evenodd" clip-rule="evenodd" d="M4.8749 12.75C5.49621 12.75 5.99988 13.2537 5.99988 13.875C5.99988 14.4963 5.49621 15 4.8749 15C4.25359 15 3.74992 14.4963 3.74992 13.875C3.74992 13.2537 4.25359 12.75 4.8749 12.75ZM11.6248 12.75C12.2461 12.75 12.7497 13.2537 12.7497 13.875C12.7497 14.4963 12.2461 15 11.6248 15C11.0035 15 10.4998 14.4963 10.4998 13.875C10.4998 13.2537 11.0035 12.75 11.6248 12.75ZM0.749985 0H2.24995C2.59165 0 2.88617 0.23013 2.97373 0.553304L2.99122 0.635957L3.35491 3H14.2497C14.6995 3 15.0409 3.39051 14.996 3.82526L14.9818 3.9127L13.7429 9.48809C13.5241 10.4728 12.6792 11.1857 11.6832 11.2459L11.5465 11.25H5.03678C3.97068 11.25 3.05767 10.5033 2.83693 9.47243L2.81298 9.34213L1.60653 1.5H0.749985C0.33578 1.5 0 1.16421 0 0.75C0 0.365373 0.289524 0.0483696 0.662521 0.00504577L0.749985 0H2.24995H0.749985ZM13.3148 4.5H3.58567L4.29551 9.11404C4.34747 9.45177 4.6197 9.70788 4.95243 9.74529L5.03678 9.75H11.5465C11.8687 9.75 12.1513 9.54485 12.2549 9.24634L12.2786 9.1627L13.3148 4.5Z" fill="#C0C0C0"/>
</svg>
