<svg width="15" height="15" viewBox="0 0 15 15" fill="none" xmlns="http://www.w3.org/2000/svg">
<path fill-rule="evenodd" clip-rule="evenodd" d="M6.67318 0H8.26506C8.31319 0.00223417 8.35546 0.00773962 8.41481 0.020665C8.85015 0.115467 9.01566 0.271798 9.42081 1.22925L9.48684 1.38719L9.74145 2.01813L9.76239 2.02674L10.0904 1.87822C10.8049 1.5587 11.1732 1.42411 11.4209 1.38656L11.4722 1.37996L11.5657 1.37492C11.7886 1.37492 12.0158 1.4539 12.1896 1.59143L12.2718 1.66498L13.2895 2.67855L13.3602 2.75333C13.6799 3.10551 13.7097 3.35519 13.3562 4.26516L13.2385 4.55872L12.9612 5.215L12.9664 5.22782L13.6017 5.4651L13.908 5.58616C14.6993 5.90968 14.8618 6.0821 14.9676 6.47817C14.9889 6.55803 14.9965 6.61244 14.9989 6.67998L15 6.75332V8.18425C15 8.28597 14.9965 8.34342 14.9715 8.44395C14.8662 8.86678 14.7099 9.02778 13.7591 9.42946L13.6023 9.49495L12.9757 9.74781L12.9714 9.75836L13.1979 10.2533C13.7613 11.5056 13.781 11.7801 13.4107 12.1925L13.3644 12.2427L12.3197 13.2867C12.1327 13.4758 11.8662 13.5799 11.6084 13.5799C11.3895 13.5799 11.0456 13.4758 10.4594 13.2407L10.1456 13.1121L9.78815 12.961L9.7677 12.9694L9.583 13.4648C9.13078 14.6564 8.97586 14.8498 8.51129 14.9697C8.44265 14.9874 8.39355 14.995 8.3378 14.9981L8.24591 15H6.81422C6.72487 15 6.67444 14.9973 6.58569 14.9781C6.15053 14.8837 5.98435 14.727 5.57841 13.769L5.51224 13.611L5.2572 12.9797L5.23758 12.9716L4.76111 13.1858C3.999 13.5214 3.66884 13.6235 3.43354 13.6235C3.21319 13.6235 2.98881 13.546 2.81031 13.4072L2.72512 13.3328L1.70882 12.3177L1.59277 12.1911C1.31406 11.8632 1.30036 11.6088 1.64245 10.7335L1.82072 10.2953L2.03833 9.78375L2.03379 9.77275L1.54113 9.58915C0.552814 9.21408 0.248235 9.04132 0.103498 8.72592L0.0643489 8.62668L0.0316463 8.5168C0.013142 8.44656 0.00524511 8.39624 0.00203651 8.33897L0 8.24452V6.81273C0 6.71021 0.00355344 6.65226 0.0290791 6.55086C0.124246 6.17284 0.259321 6.00494 0.970851 5.68608L1.26574 5.55872L2.023 5.25246L2.02819 5.23985L1.74506 4.6151C1.27787 3.55385 1.23918 3.23072 1.53394 2.86982L1.57427 2.82247L1.66977 2.72124L2.68212 1.71109C2.8676 1.52457 3.1329 1.41942 3.39112 1.41942C3.57582 1.41942 3.84701 1.49251 4.28104 1.65691L4.7177 1.83003L5.21271 2.03752L5.233 2.02907L5.41911 1.53041C5.87554 0.330306 6.03846 0.12961 6.51991 0.0218245C6.58064 0.00822822 6.62396 0.00243104 6.67318 0ZM7.89225 1.49873H7.05605L6.93815 1.77515C6.89338 1.88504 6.84287 2.0134 6.78584 2.16239L6.52449 2.86155C6.46181 3.02708 6.34302 3.16418 6.19031 3.24993L6.11124 3.28842L5.4969 3.54409C5.3418 3.60863 5.17049 3.61888 5.0103 3.57492L4.91574 3.54204L4.18894 3.23565L3.79635 3.07908L3.53248 2.98169L2.93982 3.57305L3.00957 3.74925C3.03683 3.81561 3.0682 3.88982 3.10397 3.97248L3.22478 4.24646L3.52775 4.90884C3.60031 5.06658 3.61549 5.24355 3.57265 5.40967L3.53997 5.5078L3.28877 6.1183C3.22226 6.27993 3.10181 6.41238 2.94932 6.49406L2.8705 6.53057L2.05482 6.85848L1.64707 7.03328L1.5 7.10139V7.94909L1.67597 8.02539C1.7426 8.05326 1.81741 8.08364 1.90108 8.11679L2.17934 8.22478L2.85549 8.4759C3.02595 8.53736 3.16741 8.65804 3.25514 8.81433L3.29441 8.89534L3.54565 9.50405C3.61017 9.66036 3.61962 9.8329 3.57425 9.9938L3.54045 10.0887L3.24886 10.773L3.066 11.2244L2.97691 11.4641L3.56961 12.0561L3.74609 11.9864C3.8111 11.9599 3.88234 11.9302 3.96 11.897L4.50438 11.657L4.89697 11.4762C5.06126 11.3977 5.24747 11.3821 5.42097 11.4303L5.5065 11.4597L6.12445 11.7148C6.28824 11.7825 6.42189 11.9055 6.50305 12.0609L6.53916 12.1412L6.69294 12.5293L6.91179 13.0616L7.03844 13.3524L7.10711 13.4999H7.94579L8.06556 13.2175L8.22155 12.8191L8.47556 12.138C8.53819 11.971 8.65787 11.8328 8.81191 11.7467L8.89168 11.7081L9.507 11.4541C9.66031 11.3909 9.82932 11.3805 9.98773 11.4231L10.0813 11.455L10.6607 11.7008L11.0836 11.873L11.315 11.9623L11.4677 12.0176L12.0611 11.4252L11.9468 11.143L11.7753 10.7518L11.4717 10.09C11.3988 9.93194 11.3836 9.75458 11.4267 9.58816L11.4595 9.48985L11.7102 8.882C11.7764 8.72162 11.8957 8.58999 12.0468 8.50829L12.1249 8.4717L12.8157 8.19397L13.1684 8.04612L13.2654 8.00395L13.5 7.89658V7.04971L13.2648 6.94928L12.9461 6.82317L12.1418 6.52374C11.9717 6.46185 11.8308 6.34096 11.7435 6.18466L11.7044 6.10366L11.4536 5.49249C11.3896 5.33657 11.3804 5.16461 11.4256 5.00422L11.4592 4.90959L11.6921 4.36512C11.7527 4.22113 11.8055 4.09345 11.851 3.9806L11.9327 3.77423L12.0218 3.53307L11.4288 2.94247L11.2522 3.01235C11.1545 3.05218 11.0426 3.09945 10.9157 3.15465L10.7837 3.21251L10.0915 3.52646C9.93406 3.59862 9.75754 3.61363 9.59183 3.57089L9.49394 3.53832L8.87639 3.28445C8.71474 3.21799 8.58225 3.09757 8.50052 2.94508L8.46398 2.86626L8.24563 2.31991L8.0874 1.93716L7.99976 1.73359L7.89225 1.49873ZM7.50035 4.49901C9.15496 4.49901 10.5 5.8439 10.5 7.49864C10.5 9.15348 9.15486 10.4996 7.50035 10.4996C5.84537 10.4996 4.5 9.15372 4.5 7.49864C4.5 5.84366 5.84527 4.49901 7.50035 4.49901ZM7.50035 5.99915C6.67351 5.99915 6 6.67235 6 7.49864C6 8.3253 6.67388 8.99943 7.50035 8.99943C8.32623 8.99943 9 8.32519 9 7.49864C9 6.67247 8.3266 5.99915 7.50035 5.99915Z" fill="#C0C0C0"/>
</svg>
