<svg width="40" height="40" viewBox="0 0 40 40" fill="none" xmlns="http://www.w3.org/2000/svg">
<g clip-path="url(#clip0)">
<path d="M31.3854 14.2264C31.387 13.5788 30.8619 13.0537 30.2127 13.0537C30.1209 13.0537 30.0323 13.0618 29.9502 13.0843C28.7469 13.3582 27.6709 13.9654 26.8285 14.8063C25.6639 15.9708 24.9439 17.58 24.9439 19.3567L24.9455 20.9691L14.1082 10.1318C12.855 8.8786 10.8045 8.8786 9.55291 10.1318C8.29973 11.385 8.29973 13.4355 9.55291 14.6871L14.564 19.6982C13.6378 19.6031 12.6794 19.8979 11.9691 20.6067C11.4762 21.0996 11.183 21.7165 11.0783 22.356L9.01169 30.1006C8.72819 31.1717 9.00202 32.3589 9.83963 33.1981L13.5863 36.9448C17.6599 41.0184 24.2609 41.0184 28.3346 36.9448C30.3078 34.9716 31.3161 32.4056 31.3757 29.8219L31.387 29.8316V29.5787C31.387 29.5739 31.387 29.569 31.387 29.5674L31.3854 14.2264ZM29.7633 29.7833C29.7085 32.0641 28.7952 34.2032 27.1925 35.8043C23.7535 39.2433 18.1609 39.2433 14.7235 35.8043L10.9768 32.0577C10.5758 31.6566 10.4259 31.0799 10.5741 30.5145L12.6649 22.6185C12.7036 22.3833 12.8115 22.0402 13.1047 21.7455C13.5605 21.2896 14.1098 21.2703 14.3981 21.2993L16.6484 21.5264C16.9866 21.5602 17.3104 21.3782 17.457 21.0706C17.6036 20.7629 17.5391 20.3973 17.2991 20.1556L10.6901 13.5466C10.0619 12.9184 10.0619 11.8956 10.6901 11.269C11.3183 10.6408 12.3412 10.6408 12.9678 11.269L24.3543 22.6556C24.8392 23.1404 25.5495 23.2419 26.1391 22.9777C26.392 22.8634 26.5546 22.6121 26.5546 22.335V19.3583C26.5546 18.0697 27.0572 16.8584 27.9673 15.9467C28.4811 15.4328 29.0965 15.0446 29.773 14.8046L29.7633 29.7833Z" fill="white"/>
<path d="M28.167 4.05432H19.9746L22.8901 1.13882L21.7513 0L16.8916 4.85971L21.7449 9.71459L22.8837 8.57577L19.9746 5.6651H28.167V4.05432Z" fill="white"/>
</g>
<defs>
<clipPath id="clip0">
<rect width="40" height="40" fill="white"/>
</clipPath>
</defs>
</svg>
