<svg width="20" height="27" viewBox="0 0 20 27" fill="none" xmlns="http://www.w3.org/2000/svg">
<path fill-rule="evenodd" clip-rule="evenodd" d="M16.1553 8.42405C16.8352 8.42405 17.3864 9.00065 17.3864 9.71193V22.5907C17.3864 24.7245 15.7329 26.4544 13.6932 26.4544H6.30682C4.26713 26.4544 2.61364 24.7245 2.61364 22.5907V9.71193C2.61364 9.00065 3.16481 8.42405 3.8447 8.42405H16.1553ZM14.9242 10.9998H5.07576V22.5907C5.07576 23.302 5.62693 23.8786 6.30682 23.8786H13.6932C14.3731 23.8786 14.9242 23.302 14.9242 22.5907V10.9998ZM6.30682 1.98466C6.30682 1.27338 6.85799 0.696777 7.53788 0.696777H12.4621C13.142 0.696777 13.6932 1.27338 13.6932 1.98466V3.27253H18.6174C19.2973 3.27253 19.8485 3.84914 19.8485 4.56041C19.8485 5.27169 19.2973 5.84829 18.6174 5.84829H1.38258C0.702684 5.84829 0.15152 5.27169 0.15152 4.56041C0.15152 3.84914 0.702684 3.27253 1.38258 3.27253H6.30682V1.98466Z" fill="white"/>
</svg>
