<svg width="39" height="39" viewBox="0 0 39 39" fill="none" xmlns="http://www.w3.org/2000/svg">
<circle cx="19.14" cy="19.14" r="18.64" fill="white" stroke="#A14BF7"/>
<path fill-rule="evenodd" clip-rule="evenodd" d="M15.308 13.9673C17.044 13.7914 18.7909 13.8068 20.5242 14.0131L20.9727 14.0665C21.8285 14.1685 22.5172 14.9041 22.6605 15.8617L25.0794 14.4052C25.2434 14.3065 25.44 14.3075 25.6031 14.4079C25.7663 14.5083 25.8741 14.6947 25.8903 14.9043L25.9087 15.1416C26.1144 17.8021 26.1144 20.4779 25.9087 23.1384L25.8903 23.3757C25.8741 23.5852 25.7663 23.7716 25.6031 23.872C25.44 23.9724 25.2434 23.9735 25.0794 23.8747L22.6605 22.4183C22.5172 23.3758 21.8285 24.1115 20.9727 24.2134L20.5242 24.2668C18.7909 24.4733 17.044 24.4886 15.308 24.3127L14.1409 24.1944C13.2615 24.1053 12.551 23.3439 12.4232 22.3538C12.1483 20.2226 12.1483 18.0574 12.4232 15.9262C12.551 14.9361 13.2615 14.1747 14.1409 14.0856L15.308 13.9673ZM22.797 21.1189C22.8562 21.1294 22.9149 21.1512 22.9708 21.1848L24.8559 22.3199C24.9897 20.2027 24.9897 18.0773 24.8559 15.9601L22.9708 17.0952C22.9149 17.1288 22.8562 17.1505 22.797 17.161C22.9005 18.4777 22.9005 19.8022 22.797 21.1189Z" fill="#A14BF7"/>
</svg>
