<svg width="27" height="27" viewBox="0 0 27 27" fill="none" xmlns="http://www.w3.org/2000/svg">
<path fill-rule="evenodd" clip-rule="evenodd" d="M13.5 0C6.04416 0 0 6.04416 0 13.5C0 20.9558 6.04416 27 13.5 27C20.9558 27 27 20.9558 27 13.5C27 6.04416 20.9558 0 13.5 0ZM14.5992 17.7614C14.4661 17.9017 14.2062 17.93 14.2062 17.93H13.3455C13.3455 17.93 11.4467 18.042 9.77398 16.333C7.94983 14.4685 6.33908 10.7691 6.33908 10.7691C6.33908 10.7691 6.24611 10.5265 6.34683 10.4096C6.46022 10.2776 6.76941 10.2693 6.76941 10.2693L8.82669 10.2561C8.82669 10.2561 9.02037 10.2872 9.15912 10.3875C9.27392 10.4705 9.33801 10.6246 9.33801 10.6246C9.33801 10.6246 9.67044 11.4501 10.1106 12.1967C10.9706 13.6548 11.3706 13.9735 11.6622 13.8172C12.0876 13.5898 11.9601 11.7564 11.9601 11.7564C11.9601 11.7564 11.9679 11.0913 11.746 10.7947C11.5742 10.5652 11.2502 10.4981 11.1072 10.4794C10.991 10.4642 11.1812 10.2001 11.4277 10.0819C11.7981 9.90424 12.4517 9.89388 13.2244 9.90148C13.8265 9.9077 13.9998 9.94434 14.235 10.0003C14.781 10.1297 14.764 10.5441 14.7272 11.4386C14.7162 11.7061 14.7034 12.0165 14.7034 12.3751C14.7034 12.4557 14.701 12.5416 14.6985 12.6299C14.6858 13.0882 14.6712 13.6129 14.9788 13.8083C15.1366 13.9078 15.5218 13.8228 16.486 12.2161C16.9431 11.4542 17.2854 10.5589 17.2854 10.5589C17.2854 10.5589 17.3607 10.3992 17.477 10.3308C17.596 10.261 17.7566 10.2824 17.7566 10.2824L19.9216 10.2693C19.9216 10.2693 20.5724 10.1925 20.6773 10.4815C20.7879 10.7836 20.4343 11.4902 19.5497 12.6475C18.7106 13.7456 18.3022 14.1499 18.3397 14.5075C18.3671 14.7687 18.6326 15.0051 19.1419 15.4689C20.2053 16.4379 20.4903 16.9478 20.5588 17.0703C20.5645 17.0805 20.5686 17.088 20.5717 17.0928C21.0485 17.8692 20.0427 17.93 20.0427 17.93L18.1193 17.9563C18.1193 17.9563 17.7066 18.0365 17.1628 17.6701C16.878 17.4783 16.5997 17.1651 16.3346 16.8668C15.9298 16.4112 15.5558 15.9903 15.2366 16.0897C14.7006 16.257 14.7168 17.3901 14.7168 17.3901C14.7168 17.3901 14.721 17.6328 14.5992 17.7614Z" fill="#7000E0"/>
</svg>
