<svg width="54" height="62" viewBox="0 0 54 62" fill="none" xmlns="http://www.w3.org/2000/svg">
<path d="M26.4606 40.9196H27.5388C33.4708 40.9196 38.5036 37.1204 40.2749 31.8522C40.5317 31.0853 39.9433 30.2948 39.1279 30.2948H35.8065C34.7491 30.2948 33.8949 29.4512 33.8949 28.41C33.8949 27.3658 34.7491 26.5192 35.8065 26.5192H39.0263C40.0927 26.5192 40.9559 25.6668 40.9559 24.6137C40.9559 23.5607 40.0927 22.7082 39.0263 22.7082H35.8065C34.7491 22.7082 33.8949 21.8617 33.8949 20.8204C33.8949 19.7762 34.7491 18.9297 35.8065 18.9297H39.0263C40.0927 18.9297 40.9559 18.0772 40.9559 17.0242C40.9559 15.9711 40.0927 15.1187 39.0263 15.1187H35.8065C34.7491 15.1187 33.8949 14.2721 33.8949 13.2279C33.8949 12.1867 34.7491 11.3401 35.8065 11.3401H39.2981C40.0986 11.3401 40.6721 10.585 40.4571 9.82106C38.871 4.24911 33.6888 0.166748 27.5388 0.166748H26.4606C19.0501 0.166748 13.0435 6.09561 13.0435 13.4167V27.6696C13.0435 34.9878 19.0501 40.9196 26.4606 40.9196Z" fill="#D9B7FC"/>
<path d="M50.2215 24.2959C48.5727 24.2959 47.2346 25.6144 47.2346 27.2456C47.2346 38.2627 38.1575 47.2267 27.0015 47.2267C15.8425 47.2267 6.76544 38.2627 6.76544 27.2456C6.76544 25.6144 5.42732 24.2959 3.77856 24.2959C2.12981 24.2959 0.791687 25.6144 0.791687 27.2456C0.791687 40.5192 10.965 51.4772 24.0146 52.9491V58.8839C24.0146 60.5121 25.3498 61.8336 27.0015 61.8336C28.6503 61.8336 29.9884 60.5121 29.9884 58.8839V52.9491C43.0351 51.4772 53.2084 40.5192 53.2084 27.2456C53.2084 25.6144 51.8702 24.2959 50.2215 24.2959Z" fill="#D9B7FC"/>
</svg>
