<svg width="9" height="14" viewBox="0 0 9 14" fill="none" xmlns="http://www.w3.org/2000/svg">
<path d="M7.48017 7.61887C9.16573 5.87826 9.16573 3.04608 7.48017 1.30547C5.79462 -0.435158 3.05204 -0.435158 1.36646 1.30547C-0.319094 3.04608 -0.319094 5.87826 1.36646 7.61887C2.07994 8.35564 2.9828 8.78044 3.91469 8.8935V10.3881H2.89753C2.61663 10.3881 2.38894 10.6232 2.38894 10.9133C2.38894 11.2033 2.61663 11.4385 2.89753 11.4385H3.91469V12.918C3.91472 13.208 4.14241 13.4432 4.42333 13.4432C4.70422 13.4432 4.93191 13.208 4.93191 12.918V11.4385H5.94911C6.23 11.4385 6.45769 11.2033 6.45769 10.9133C6.45769 10.6232 6.23 10.3881 5.94911 10.3881H4.93191V8.89353C5.86383 8.78044 6.7667 8.35564 7.48017 7.61887ZM2.08573 6.8761C0.796772 5.54504 0.796772 3.37927 2.08573 2.04821C3.37467 0.717202 5.47191 0.717124 6.76093 2.04821C8.04989 3.37927 8.04989 5.54504 6.76093 6.8761C5.47197 8.20714 3.37469 8.20714 2.08573 6.8761Z" fill="#A8A8A8"/>
</svg>
